#tb 0: 1/25
0,          1,          1,        1,    36864, 0x3d54d3e3
0,          3,          3,        1,    36864, 0xa9573ef0
0,          5,          5,        1,    36864, 0x0ea5f263
0,          7,          7,        1,    36864, 0x5a849fb9
0,          9,          9,        1,    36864, 0x7ddb1eff
0,         11,         11,        1,    36864, 0x5e73e3b7
0,         13,         13,        1,    36864, 0x7d50d329
0,         15,         15,        1,    36864, 0xf2c2cd27
0,         17,         17,        1,    36864, 0xdf4f4628
0,         19,         19,        1,    36864, 0xddd6d5be
0,         21,         21,        1,    36864, 0xb530e1aa
0,         23,         23,        1,    36864, 0xeca42470
0,         25,         25,        1,    36864, 0xa5701caf
0,         27,         27,        1,    36864, 0x6f5d28fc
0,         29,         29,        1,    36864, 0xd4ab4ab2
0,         31,         31,        1,    36864, 0xf2dfcc22
0,         33,         33,        1,    36864, 0xcaa87e79
